<?xml version="1.0" standalone="no"?>
<!DOCTYPE svg PUBLIC "-//W3C//DTD SVG 20010904//EN"
 "http://www.w3.org/TR/2001/REC-SVG-20010904/DTD/svg10.dtd">
<svg version="1.0" xmlns="http://www.w3.org/2000/svg"
 width="500.000000pt" height="500.000000pt" viewBox="0 0 500.000000 500.000000"
 preserveAspectRatio="xMidYMid meet">

<g transform="translate(0.000000,500.000000) scale(0.100000,-0.100000)"
fill="#000000" stroke="none">
<path d="M1030 3285 c-162 -20 -488 -94 -615 -138 l-40 -14 -3 -125 -3 -125
42 -37 c22 -21 49 -56 59 -79 21 -48 46 -177 55 -287 16 -187 73 -399 136
-507 56 -95 171 -204 261 -247 122 -58 247 -86 423 -92 142 -6 157 -4 282 25
187 42 247 74 358 185 142 144 227 303 284 531 31 125 56 283 47 293 -3 3 -6
-7 -6 -21 0 -15 -4 -27 -10 -27 -5 0 -10 25 -10 56 0 59 18 72 31 23 7 -22 7
-22 8 7 2 49 60 96 138 109 70 11 128 -3 174 -44 l40 -36 15 -115 c34 -264
111 -494 217 -650 112 -164 260 -262 467 -311 139 -33 385 -33 520 0 213 52
350 151 442 321 85 155 102 212 137 450 46 303 65 368 127 415 l34 26 0 125 0
125 -44 19 c-62 28 -334 95 -511 126 -122 22 -192 27 -371 31 -255 6 -374 -5
-541 -48 -138 -35 -205 -63 -324 -134 -52 -30 -99 -55 -106 -55 -6 0 -38 7
-70 15 -70 18 -218 19 -333 1 -95 -15 -69 -23 -226 68 -84 49 -206 92 -354
123 -101 22 -145 25 -370 29 -176 2 -288 -1 -360 -11z m2948 -32 c-10 -2 -26
-2 -35 0 -10 3 -2 5 17 5 19 0 27 -2 18 -5z m212 -28 c84 -13 318 -71 395 -98
l40 -14 3 -103 c3 -115 -4 -151 -20 -110 -6 14 -12 41 -15 60 -3 19 -10 44
-17 55 -7 11 -12 28 -10 38 1 9 -2 15 -7 11 -5 -3 -9 -2 -9 3 0 11 -36 26
-145 61 -98 32 -338 107 -370 116 -26 7 47 -2 155 -19z m-2210 -45 c8 -5 11
-10 5 -10 -5 0 -17 5 -25 10 -8 5 -10 10 -5 10 6 0 17 -5 25 -10z m-425 -15
c369 -39 530 -140 591 -370 21 -78 18 -311 -6 -417 -52 -237 -181 -436 -336
-520 -27 -15 -90 -39 -139 -54 -83 -26 -102 -28 -260 -27 -142 0 -183 3 -250
22 -123 33 -201 75 -276 150 -111 112 -172 271 -200 521 -11 99 -8 286 6 321
9 25 235 64 235 40 0 -5 15 -31 34 -58 57 -83 120 -219 176 -378 29 -82 58
-161 65 -175 23 -43 86 -110 104 -110 25 0 69 43 87 85 37 90 5 181 -122 340
-31 39 -93 126 -138 195 -81 123 -146 194 -202 223 -16 8 -60 24 -97 37 l-69
22 33 34 c71 74 298 129 544 133 44 0 143 -6 220 -14z m2252 4 c149 -12 237
-30 310 -64 61 -28 143 -82 143 -95 0 -4 -24 -16 -52 -25 -29 -10 -71 -28 -94
-41 -45 -26 -193 -176 -239 -244 -16 -24 -70 -94 -118 -155 -130 -161 -169
-252 -147 -335 14 -52 60 -101 89 -93 55 14 127 132 190 310 18 50 69 165 112
255 76 157 81 163 111 166 40 4 193 -27 216 -44 14 -11 18 -35 20 -165 7 -287
-45 -487 -171 -654 -67 -90 -148 -143 -282 -185 -88 -27 -321 -38 -434 -21
-148 23 -284 84 -355 160 -16 16 -33 28 -38 25 -5 -3 -7 0 -6 8 2 7 -3 12 -9
11 -7 -2 -12 0 -10 5 1 4 -8 18 -20 31 -12 13 -20 28 -17 33 3 4 1 8 -3 8 -5
0 -17 14 -26 30 -10 17 -15 30 -12 30 4 0 -1 7 -9 16 -9 8 -14 20 -11 25 4 5
1 9 -5 9 -6 0 -9 4 -6 9 9 14 -5 42 -17 34 -6 -4 -8 0 -4 10 3 9 -5 49 -18 89
-37 116 -45 171 -45 306 0 245 61 368 225 453 167 87 434 123 732 98z m-1744
-25 c101 -51 185 -107 180 -120 -4 -12 -9 -11 -28 3 -12 10 -38 30 -56 44 -19
15 -56 39 -84 54 -27 15 -52 29 -54 31 -10 9 12 3 42 -12z m621 -95 l38 -11
-7 -45 c-8 -56 -25 -95 -39 -90 -6 2 -19 34 -28 72 -10 38 -23 72 -30 77 -19
12 19 10 66 -3z m63 -31 c-3 -13 -11 -59 -17 -102 -13 -86 -34 -153 -26 -81
15 125 30 205 38 205 6 0 8 -10 5 -22z m-2167 -18 c6 -11 8 -20 6 -20 -3 0
-10 9 -16 20 -6 11 -8 20 -6 20 3 0 10 -9 16 -20z m3988 -12 c3 -15 0 -16 -27
-7 -38 14 -41 31 -4 27 17 -2 29 -10 31 -20z m-1721 -200 c-3 -8 -6 -5 -6 6
-1 11 2 17 5 13 3 -3 4 -12 1 -19z m-1706 -121 c16 -32 46 -86 67 -120 81
-134 107 -225 42 -149 -23 28 -152 298 -175 367 -11 31 32 -32 66 -98z m1696
56 c-3 -10 -5 -4 -5 12 0 17 2 24 5 18 2 -7 2 -21 0 -30z m27 -388 c30 -117
114 -292 181 -377 27 -33 79 -79 128 -112 112 -76 227 -106 452 -116 l160 -8
-180 3 c-168 3 -187 5 -284 34 -57 17 -118 40 -136 51 -170 105 -285 292 -345
562 -15 65 -20 120 -18 210 l1 123 8 -135 c5 -89 16 -169 33 -235z m-2224 16
c14 -90 71 -267 106 -332 14 -25 47 -70 72 -100 26 -29 36 -45 22 -35 -45 34
-101 110 -126 171 -72 171 -93 273 -99 475 l-4 135 9 -120 c5 -66 14 -153 20
-194z m110 -246 c0 -5 -5 -3 -10 5 -5 8 -10 20 -10 25 0 6 5 3 10 -5 5 -8 10
-19 10 -25z m69 -119 c-3 -3 -11 5 -18 17 -13 21 -12 21 5 5 10 -10 16 -20 13
-22z m3014 -253 c-7 -2 -19 -2 -25 0 -7 3 -2 5 12 5 14 0 19 -2 13 -5z"/>
</g>
</svg>
